<?xml version="1.0" encoding="UTF-8"?>
<!DOCTYPE svg PUBLIC "-//W3C//DTD SVG 1.1//EN" "http://www.w3.org/Graphics/SVG/1.1/DTD/svg11.dtd">
<!-- Creator: CorelDRAW 2021 (64-Bit) -->
<svg xmlns="http://www.w3.org/2000/svg" xml:space="preserve" width="2363px" height="494px" version="1.1" shape-rendering="geometricPrecision" text-rendering="geometricPrecision" image-rendering="optimizeQuality" fill-rule="evenodd" clip-rule="evenodd"
viewBox="0 0 61.27 12.8"
 xmlns:xlink="http://www.w3.org/1999/xlink"
 xmlns:xodm="http://www.corel.com/coreldraw/odm/2003">
 <g id="Layer_x0020_1">
  <metadata id="CorelCorpID_0Corel-Layer"/>
  <g id="_2814050974192">
   <path fill="#FEFEFE" d="M0.25 11.37c0.14,0.14 0.2,0.07 0.41,0.01 0.91,-0.27 2.45,-0.68 3.32,-0.75 1.34,-0.12 2.91,0.12 4.09,0.51 2.15,0.72 4.23,1.72 6.56,0.58 0.44,-0.21 0.7,-0.21 0.63,-0.48 -0.24,-0.07 -0.59,0.19 -0.82,0.3 -0.26,0.12 -0.56,0.21 -0.86,0.28 -3.29,0.8 -5.27,-1.91 -9.72,-1.43 -1.53,0.17 -1.63,0.34 -2.83,0.61 -0.27,0.06 -0.72,0.16 -0.78,0.37z"/>
   <path fill="#FEFEFE" d="M5.28 8.81c0.03,-0.13 -0.05,-0.66 0,-0.96 0.12,-0.76 0.33,-1.16 0.8,-1.72 0.08,-0.11 0.15,-0.17 0.23,-0.26 0.35,-0.41 0.5,-0.63 1.21,-0.82 0.53,-0.15 1.19,-0.27 1.78,-0.2 1.18,0.12 2.12,0.79 2.63,1.41 0.31,0.37 0.49,0.8 0.61,1.41 0.12,0.62 0.05,0.66 0.08,0.91 0.02,0.18 0.22,0.19 0.26,-0.01 0.1,-0.58 -0.17,-1.64 -0.42,-2.1 -0.26,-0.48 -0.58,-0.75 -0.97,-1.05 -0.82,-0.65 -1.74,-1 -3.12,-0.83 -1.32,0.16 -2.07,0.66 -2.62,1.43 -0.43,0.6 -0.81,1.4 -0.82,2.21 0,0.29 -0.03,0.76 0.35,0.58z"/>
   <path fill="#FEFEFE" d="M14.17 11.16c0.39,-0.08 0.75,-0.21 1.1,-0.36 0.18,-0.07 0.35,-0.15 0.52,-0.22 0.2,-0.09 0.41,-0.06 0.33,-0.33 -0.21,-0.07 -0.83,0.25 -1.06,0.35 -0.38,0.17 -0.68,0.25 -1.14,0.32 -2.48,0.36 -4.4,-0.97 -6.14,-1.09 -0.13,-0.01 -1.45,-0.12 -1.16,0.21 0.09,0.09 0.57,0.03 0.72,0.03 0.22,0 0.45,0.02 0.67,0.05 0.41,0.06 0.81,0.15 1.19,0.27 0.78,0.24 1.4,0.5 2.26,0.66 0.71,0.14 1.99,0.26 2.71,0.11z"/>
   <path fill="#FEFEFE" d="M10.4 12.79c0.09,0.04 0.5,-0.07 0.63,-0.11 -0.08,-0.14 -0.35,-0.13 -0.51,-0.16 -0.52,-0.11 -0.96,-0.26 -1.46,-0.43 -1.46,-0.5 -2.77,-0.8 -4.33,-0.79 -0.32,0 -2.28,-0.02 -2.16,0.36 0.07,0.11 0.32,0.03 0.48,0 0.77,-0.14 0.85,-0.09 1.65,-0.09 2.77,0 3.45,0.67 5.7,1.22z"/>
   <path fill="#FEFEFE" d="M13.78 8.62c0.21,0 0.42,0.01 0.63,0.01 0.7,0 3.22,0.07 3.57,-0.08 0.01,-0.27 -0.15,-0.22 -0.4,-0.21 -1.22,0.01 -2.49,-0.03 -3.7,-0.02 -0.33,0.01 -0.47,-0.05 -0.5,0.1 -0.04,0.25 0.23,0.2 0.4,0.2z"/>
   <path fill="#FEFEFE" d="M4.45 8.74c0.03,-0.29 -0.12,-0.24 -0.39,-0.22 -0.2,0.01 -0.38,0.04 -0.56,0.07 -0.4,0.05 -0.79,0.03 -1.2,0.05l-1.77 0.09c-0.15,0.01 -0.48,-0.02 -0.52,0.1 -0.11,0.34 0.78,0.18 0.98,0.17 0.4,-0.03 0.78,-0.04 1.18,-0.05 0.52,-0.01 1.9,-0.05 2.28,-0.21z"/>
   <path fill="#FEFEFE" d="M4.76 6.92c0.13,-0.26 -0.19,-0.29 -0.76,-0.49 -0.38,-0.13 -2.96,-1.06 -3.16,-0.91 -0.3,0.22 0.6,0.43 0.77,0.48 0.86,0.24 1.24,0.36 2.08,0.65 0.25,0.09 0.84,0.34 1.07,0.27z"/>
   <path fill="#FEFEFE" d="M0.91 6.41c-0.22,-0.05 -0.42,-0.15 -0.38,0.17 0.19,0.11 3.86,1.04 4.06,1.01l0.05 -0.23c-0.69,-0.24 -2.34,-0.6 -3.2,-0.82 -0.19,-0.04 -0.35,-0.08 -0.53,-0.13z"/>
   <path fill="#FEFEFE" d="M10.92 4.41c0.33,0.14 0.37,-0.08 0.73,-0.61 0.2,-0.29 0.38,-0.59 0.57,-0.9 0.13,-0.22 1.08,-1.73 1.03,-1.89 -0.02,-0.08 0.01,-0.06 -0.09,-0.07 -0.22,-0.04 -0.43,0.46 -0.58,0.74 -0.35,0.68 -0.69,1.18 -1.11,1.81 -0.13,0.2 -0.53,0.73 -0.55,0.92z"/>
   <path fill="#FEFEFE" d="M6.25 4.68c0.23,-0.09 0.23,-0.22 0.08,-0.42 -0.35,-0.45 -1.8,-3.09 -2.08,-3.16 -0.11,-0.02 -0.19,0.03 -0.18,0.15 0.01,0.07 0.11,0.19 0.14,0.24l0.89 1.36c0.16,0.24 0.98,1.65 1.15,1.83z"/>
   <path fill="#FEFEFE" d="M15.59 2.99l-1.7 1.33c-0.4,0.32 -0.88,0.68 -1.32,0.95 -0.08,0.05 -0.17,0.08 -0.14,0.21 0.08,0.34 0.5,-0.08 0.67,-0.2 0.48,-0.34 0.84,-0.59 1.3,-0.97l1.27 -1.01c0.06,-0.05 0.17,-0.1 0.17,-0.21 0,-0.13 -0.14,-0.14 -0.25,-0.1z"/>
   <path fill="#FEFEFE" d="M7.56 0.02c-0.06,0.12 0.07,0.74 0.09,0.93 0.07,0.75 0.1,1.21 0.21,1.97l0.09 0.88c0.05,0.21 0.2,0.14 0.32,0.07 0.03,-0.14 -0.3,-2.54 -0.35,-3.08 -0.04,-0.37 -0.03,-0.89 -0.36,-0.77z"/>
   <path fill="#FEFEFE" d="M5.2 5.89c0.05,-0.08 0.08,-0.09 0.12,-0.21l-2.29 -2.07c-0.23,-0.2 -0.47,-0.49 -0.61,-0.3 -0.12,0.18 0.3,0.42 0.58,0.71l1.06 0.96c0.23,0.22 0.87,0.85 1.14,0.91z"/>
   <path fill="#FEFEFE" d="M13.16 6.86l0.05 0.26c0.22,-0.02 1.46,-0.54 1.77,-0.65 0.36,-0.14 1.62,-0.46 1.79,-0.63l-0.02 -0.16c-0.23,-0.09 -0.69,0.12 -0.93,0.2 -0.52,0.18 -2.26,0.75 -2.66,0.98z"/>
   <path fill="#FEFEFE" d="M11.58 4.81c0.21,0.19 0.25,0.07 0.59,-0.4l1.35 -1.67c0.1,-0.11 0.23,-0.19 0.25,-0.36 -0.02,-0.02 -0.13,-0.27 -0.35,0.04l-0.84 0.96c-0.18,0.22 -1,1.21 -1,1.43z"/>
   <path fill="#FEFEFE" d="M13.37 7.79c0.25,0.04 0.63,-0.06 0.89,-0.1 0.3,-0.05 0.61,-0.06 0.91,-0.09l1.31 -0.19c0.2,-0.04 0.21,-0.09 0.15,-0.28 0,0 -3.09,0.29 -3.36,0.45 0.03,0.12 0.04,0.12 0.1,0.21z"/>
   <path fill="#FEFEFE" d="M8.74 3.84c0.44,0.08 0.29,-0.25 0.26,-0.56 -0.04,-0.53 -0.02,-2.15 -0.2,-2.48 -0.39,-0.09 -0.24,0.29 -0.21,0.58 0.03,0.44 0.11,2.32 0.15,2.46z"/>
   <path fill="#FEFEFE" d="M5.75 5.12c0.12,-0.04 0.15,-0.08 0.22,-0.16l-1.72 -2.19c-0.08,-0.1 -0.19,-0.29 -0.36,-0.17 -0.15,0.1 0.03,0.25 0.1,0.33l1.23 1.57c0.1,0.13 0.41,0.57 0.53,0.62z"/>
   <path fill="#FEFEFE" d="M2.26 4.98c-0.29,0.17 0.39,0.42 0.49,0.47 0.24,0.12 0.49,0.24 0.73,0.36 0.17,0.08 1.36,0.7 1.47,0.62 0.04,-0.04 0.06,-0.12 0.05,-0.18 -0.02,-0.09 -0.06,-0.1 -0.14,-0.14 -0.12,-0.05 -0.25,-0.1 -0.38,-0.16l-1.44 -0.7c-0.16,-0.08 -0.62,-0.37 -0.78,-0.27z"/>
   <path fill="#FEFEFE" d="M10.64 4.22c0.11,-0.54 0.71,-2.1 0.97,-2.77 0.07,-0.17 0,-0.41 -0.19,-0.26 -0.12,0.1 -0.75,1.97 -0.87,2.34 -0.1,0.3 -0.35,0.66 0.09,0.69z"/>
   <path fill="#FEFEFE" d="M9.66 3.92c0.11,0.04 0.12,0.03 0.25,0.02 0.09,-0.26 0.15,-0.87 0.21,-1.2 0.04,-0.22 0.29,-1.14 0.02,-1.16 -0.19,-0.02 -0.2,0.32 -0.23,0.48 -0.03,0.2 -0.06,0.41 -0.1,0.61 -0.04,0.27 -0.22,1.05 -0.15,1.25z"/>
   <path fill="#FEFEFE" d="M6.9 4.27c0.42,-0.04 0.12,-0.45 -0.14,-1.03 -0.08,-0.17 -0.41,-1.05 -0.53,-1.09 -0.45,-0.16 0.12,0.93 0.16,1.02 0.1,0.23 0.4,0.96 0.51,1.1z"/>
   <path fill="#FEFEFE" d="M14.33 5.31c-0.14,-0.18 -0.2,-0.13 -0.37,-0.02l-0.83 0.49c-0.14,0.08 -0.35,0.13 -0.3,0.33 0.06,0.27 0.36,-0.01 0.76,-0.26 0.26,-0.16 0.67,-0.34 0.74,-0.54z"/>
   <path fill="#FEFEFE" d="M3.18 8.12c0.27,0.03 1.12,0.07 1.3,-0.01 0.05,-0.2 0.07,-0.25 -0.15,-0.26 -0.34,0 -1.05,-0.06 -1.29,0 -0.05,0.17 -0.05,0.25 0.14,0.27z"/>
   <path fill="#FEFEFE" d="M55.99 5.04c0.09,-0.32 0.54,-1.37 0.71,-1.81 0.06,-0.16 0.17,-0.5 0.27,-0.6l0.9 2.41 -1.88 0zm-6.39 -3.05c0,-0.21 0.03,-0.21 0.23,-0.21 1.06,0 2.11,-0.11 1.99,1.42 -0.1,1.21 -1.25,1.13 -2.22,1.13l0 -2.34zm1.9 2.63c1.77,-0.41 1.64,-2.18 0.89,-2.73 -0.57,-0.41 -1.16,-0.51 -2,-0.51 -0.83,0 -1.66,0 -2.49,0l0 0.3c0.41,0.23 0.83,-0.28 0.83,1.06l0 3.76c-0.01,0.82 -0.12,0.89 -0.91,0.96l0 0.31 2.92 0 0.01 -0.31c-1.4,-0.01 -1.15,-0.3 -1.15,-2.71 0.65,0 0.76,0.15 1.04,0.5l1.31 1.68c0.12,0.15 0.22,0.28 0.33,0.42 0.1,0.14 0.24,0.29 0.32,0.42l3.35 0 0 -0.3c-0.25,-0.04 -0.49,-0.01 -0.6,-0.2 -0.19,-0.34 0.34,-1.59 0.47,-1.81l2.2 0c0.15,0.27 0.36,0.88 0.46,1.19 0.24,0.69 -0.02,0.79 -0.68,0.8l-0.01 0.32 2.71 0 -0.01 -0.32c-0.44,-0.03 -0.59,-0.11 -0.77,-0.38 -0.32,-0.48 -1.06,-2.44 -1.38,-3.23l-0.98 -2.46 -0.38 0.01c-0.05,0.21 -0.17,0.46 -0.26,0.68 -0.09,0.21 -0.17,0.42 -0.26,0.64l-1.54 3.87c-0.16,0.39 -0.41,0.96 -0.96,0.83 -0.65,-0.15 -0.75,-0.38 -1.07,-0.74l-1.63 -1.97 0.24 -0.08z"/>
   <path fill="#FEFEFE" d="M35.21 4.32c0,-0.41 0,-0.81 0,-1.21 0,-1.46 -0.14,-1.34 0.46,-1.33 0.19,0 0.39,-0.01 0.58,0 1.63,0.08 1.22,1.76 0.92,2.12 -0.36,0.44 -1.52,0.5 -1.96,0.42zm1.16 3.14c-0.83,-0.01 -1.11,-0.05 -1.15,-0.78 -0.02,-0.36 -0.05,-1.64 0,-1.93 0.49,-0.03 0.7,0.1 0.93,0.37 0.5,0.6 1.1,1.43 1.62,2.08 0.03,0.04 0.04,0.05 0.07,0.09 0.06,0.08 0.04,0.03 0.07,0.13l0.3 0.35 1.61 0 -0.02 -0.3c-0.16,-0.07 -0.38,-0.09 -0.56,-0.16 -0.15,-0.06 -0.35,-0.19 -0.43,-0.28l-1.63 -1.95c-0.09,-0.11 -0.24,-0.28 -0.32,-0.39 0.11,-0.06 0.34,-0.09 0.47,-0.13 0.89,-0.29 1.35,-1.06 1.14,-1.93 -0.25,-1.06 -1.5,-1.25 -2.49,-1.25 -0.82,0 -1.65,0 -2.47,0l0.01 0.32c0.81,0.05 0.82,0.25 0.82,1.07l0 3.73c-0.01,0.79 -0.13,0.93 -0.91,0.96l0 0.31 2.92 0 0.02 -0.31z"/>
   <path fill="#FEFEFE" d="M43.09 1.8c1.55,-0.29 2.6,0.79 2.77,2.34 0.19,1.64 -0.49,3.01 -1.92,3.23 -1.68,0.25 -2.65,-0.85 -2.78,-2.36 -0.12,-1.41 0.38,-2.93 1.93,-3.21zm-0.13 -0.46c-0.13,0.03 -0.53,0.14 -0.62,0.1 0,0 0.01,0.01 0.01,0.01 0,0 0.01,0.02 0.01,0.01 0.01,-0.01 0.01,0.02 0.02,0.03 -0.67,0.13 -1.49,0.83 -1.85,1.44 -1.51,2.6 0.86,5.55 3.86,4.82 1.57,-0.37 2.94,-1.86 2.5,-3.88 -0.19,-0.87 -0.79,-1.59 -1.33,-1.94 -0.79,-0.52 -1.44,-0.69 -2.6,-0.59z"/>
   <path fill="#FEFEFE" d="M32.82 1.38l-2.41 0 0.01 0.32c0.33,0 0.64,0.03 0.79,0.27 0.28,0.46 0.19,2.29 0.19,2.88 0,1.12 0.07,2.46 -1.61,2.49 -1.81,0.03 -1.72,-1.25 -1.72,-2.43 0,-0.5 -0.08,-2.54 0.14,-2.94 0.14,-0.26 0.41,-0.27 0.77,-0.27l0 -0.32 -2.85 0.01 0.03 0.31c0.41,0.03 0.68,0.01 0.82,0.36 0.15,0.41 0.09,2.91 0.09,3.45 0.01,1.68 0.72,2.34 2.4,2.35 2.94,0.02 2.38,-2.53 2.43,-4.69 0.01,-0.34 0.02,-0.77 0.12,-1.06 0.12,-0.36 0.35,-0.4 0.79,-0.41l0.01 -0.32z"/>
   <path fill="#FEFEFE" d="M22.46 2.63c0.14,0.18 0.38,0.93 0.48,1.2 0.13,0.37 0.34,0.83 0.45,1.21l-1.88 0 0.95 -2.41zm-0.99 4.83c-0.66,-0.06 -0.77,-0.19 -0.56,-0.87 0.06,-0.21 0.34,-1 0.44,-1.13l2.19 0c0.15,0.29 0.36,0.87 0.46,1.19 0.23,0.7 -0.01,0.79 -0.68,0.8l-0.01 0.32 2.71 0 -0.02 -0.32c-0.45,-0.02 -0.57,-0.11 -0.76,-0.38 -0.3,-0.42 -1.44,-3.37 -1.71,-4.05l-0.65 -1.64c-0.39,0 -0.35,-0.04 -0.44,0.2 -0.56,1.48 -1.29,3.22 -1.89,4.72 -0.26,0.66 -0.31,1.06 -1.1,1.16l0.01 0.31 2.01 0 0 -0.31z"/>
   <path fill="#FEFEFE" d="M59.7 8.69c0.42,-0.04 0.76,-0.03 0.75,0.43 -0.01,0.44 -0.35,0.44 -0.76,0.44l0.01 -0.87zm0.93 0.02c-0.31,-0.24 -1.09,-0.17 -1.53,-0.17 0.03,0.24 0.05,0.03 0.22,0.17 0.12,0.1 0.07,1.25 0.07,1.53 0,0.39 -0.06,0.33 -0.21,0.38 -0.15,0.05 -0.06,-0.04 -0.11,0.08 0.05,0.04 -0.01,0.01 0.07,0.03l0.94 0.01c-0.02,-0.19 0.05,-0.06 -0.1,-0.11 -0.02,-0.01 -0.11,-0.01 -0.16,-0.03 -0.1,-0.03 -0.12,-0.08 -0.13,-0.21 -0.02,-0.2 0,-0.48 0,-0.69 0.21,0.01 0.26,0.06 0.36,0.18 0.08,0.1 0.14,0.18 0.23,0.3 0.17,0.2 0.37,0.56 0.53,0.56 0.23,0 0.38,0.03 0.46,-0.04 -0.03,-0.11 -0.02,-0.06 -0.16,-0.11 -0.23,-0.08 -0.76,-0.78 -0.85,-0.91 0.26,-0.08 0.43,-0.14 0.52,-0.35 0.11,-0.27 0.01,-0.5 -0.15,-0.62z"/>
   <path fill="#FEFEFE" d="M47.75 8.7c1.17,-0.32 1.4,1.65 0.44,1.88 -1.18,0.29 -1.41,-1.6 -0.44,-1.88zm-0.96 1.13c0.23,1.4 2.6,1.16 2.35,-0.37 -0.24,-1.45 -2.59,-1.13 -2.35,0.37z"/>
   <path fill="#FEFEFE" d="M52.51 9.77c-0.04,-0.55 0.2,-1.02 0.68,-1.09 0.58,-0.08 0.89,0.33 0.94,0.84 0.06,0.57 -0.19,1.02 -0.69,1.08 -0.57,0.07 -0.9,-0.31 -0.93,-0.83zm-0.36 0.06c0.09,0.56 0.65,1.02 1.34,0.93 1.56,-0.22 1.21,-2.46 -0.36,-2.23 -0.58,0.09 -1.09,0.61 -0.98,1.3z"/>
   <path fill="#FEFEFE" d="M37.05 9.89c-0.08,0.49 -0.46,0.85 -1.04,0.69 -0.45,-0.12 -0.65,-0.64 -0.55,-1.2 0.22,-1.13 1.82,-0.89 1.59,0.51zm-1.97 -0.06c0.08,0.57 0.67,1.03 1.35,0.93 0.59,-0.09 1.11,-0.59 0.99,-1.29 -0.23,-1.44 -2.57,-1.17 -2.34,0.36z"/>
   <path fill="#FEFEFE" d="M44.24 10.03c-0.15,0 -0.11,0.05 -0.18,0.2 -0.25,0.55 -1.35,0.65 -1.38,-0.52 -0.03,-1.12 0.81,-1.18 1.15,-0.92 0.06,0.05 0.14,0.13 0.18,0.2 0.07,0.12 0.03,0.18 0.15,0.21 0.08,-0.1 0.04,-0.5 0,-0.64 -0.12,0.01 -0.06,-0.02 -0.11,0.15 -0.39,-0.14 -0.56,-0.3 -1.07,-0.12 -0.83,0.29 -1.1,1.95 0.28,2.18l-0.11 0.3c0.58,-0.02 0.27,0.45 0.08,0.23 -0.09,-0.11 0,-0.13 -0.19,-0.13 -0.1,0.31 0.32,0.38 0.54,0.25 0.09,-0.05 0.18,-0.2 0.09,-0.35 -0.06,-0.12 -0.2,-0.08 -0.31,-0.15 0.08,-0.24 0.1,-0.13 0.35,-0.2 0.16,-0.05 0.25,-0.13 0.36,-0.19 0.1,0.14 -0.01,0.2 0.18,0.2l-0.01 -0.7z"/>
   <path fill="#FEFEFE" d="M40.08 10.17c0.08,0.34 0.21,0.53 0.58,0.58 0.38,0.06 0.75,-0.01 0.91,-0.24 0.18,-0.27 0.16,-0.66 0.16,-1.02 0,-0.51 -0.07,-0.82 0.31,-0.84l0.02 -0.11c-0.18,0 -0.72,-0.03 -0.84,0.05 0.08,0.15 0.14,0.02 0.26,0.13 0.12,0.13 0.08,0.8 0.08,0.99 0,0.49 -0.03,0.88 -0.57,0.88 -0.57,0 -0.58,-0.37 -0.57,-0.88 0,-0.24 -0.01,-0.49 0,-0.72 0.02,-0.47 0.21,-0.23 0.31,-0.4l-0.74 -0.05c-0.02,0 -0.1,0 -0.12,0.01l-0.11 0.04c0.04,0.09 0.04,0.04 0.17,0.09 0.25,0.1 0.11,0.93 0.15,1.49z"/>
   <path fill="#FEFEFE" d="M33.43 10.59c0.19,0.11 0.28,0.19 0.59,0.18 0.79,-0.03 1.02,-0.82 0.32,-1.2 -0.26,-0.15 -0.91,-0.33 -0.72,-0.73 0.08,-0.17 0.38,-0.24 0.58,-0.12 0.06,0.03 0.14,0.12 0.18,0.19 0.14,0.23 0.01,0.17 0.17,0.21 0.06,-0.09 0.01,-0.48 0,-0.55 -0.14,0.01 -0.05,0.01 -0.16,0.1 -0.37,-0.28 -0.86,-0.17 -1.02,0.2 -0.36,0.81 0.82,0.86 1.02,1.21 0.24,0.42 -0.36,0.72 -0.8,0.43 -0.17,-0.11 -0.18,-0.23 -0.23,-0.34 -0.05,-0.12 0.03,-0.05 -0.09,-0.1 -0.06,0.09 -0.02,0.42 -0.01,0.51l0.05 0.14 0.12 -0.13z"/>
   <path fill="#FEFEFE" d="M57.78 8.99l0.29 0.81 -0.63 -0.01 0.34 -0.8zm-0.57 1.58c-0.02,-0.15 0.06,-0.4 0.12,-0.52 0.08,-0.17 0.11,-0.11 0.82,-0.11 0.05,0.23 0.2,0.41 0.15,0.65 -0.32,0.1 -0.21,-0.02 -0.25,0.11 0.11,0.09 0.74,0.04 0.93,0.04 -0.02,-0.2 0.05,-0.06 -0.1,-0.13 -0.09,-0.04 -0.05,0.02 -0.14,-0.08 -0.12,-0.13 -0.52,-1.21 -0.62,-1.45 -0.24,-0.58 -0.25,-0.76 -0.46,-0.25 -0.03,0.09 -0.07,0.19 -0.11,0.29l-0.46 1.15c-0.23,0.57 -0.33,0.17 -0.36,0.47 0.06,0 0.65,0.02 0.67,-0.03 0,0 0.01,0 0.02,-0.01 -0.04,-0.13 0.04,-0.02 -0.1,-0.08 -0.06,-0.03 -0.04,0 -0.11,-0.05z"/>
   <path fill="#FEFEFE" d="M50.47 10.58c0.19,0.09 0.32,0.19 0.6,0.19 0.45,-0.01 0.85,-0.34 0.73,-0.8 -0.14,-0.53 -1.32,-0.54 -1.12,-1.12 0.09,-0.24 0.59,-0.28 0.77,0.04 0.13,0.23 0.03,0.18 0.15,0.23 0.07,-0.08 0.04,0.03 0.05,-0.13l-0.05 -0.43c-0.11,0.03 -0.05,0.02 -0.12,0.11 -0.18,-0.1 -0.32,-0.2 -0.62,-0.14 -0.2,0.05 -0.35,0.17 -0.43,0.35 -0.32,0.79 0.82,0.86 1.03,1.19 0.25,0.41 -0.37,0.76 -0.8,0.43 -0.33,-0.25 -0.13,-0.39 -0.33,-0.43 -0.05,0.12 -0.03,0.49 0.03,0.63 0.06,-0.02 0.06,-0.02 0.11,-0.12z"/>
   <path fill="#FEFEFE" d="M45.11 9.79c0.07,-0.18 0.23,-0.68 0.34,-0.8l0.3 0.81 -0.64 -0.01zm-0.22 0.79c-0.05,-0.24 0.09,-0.42 0.15,-0.63l0.78 0c0.05,0.22 0.2,0.4 0.15,0.64 -0.28,0.09 -0.2,-0.03 -0.25,0.11 0.09,0.07 0.82,0.04 0.94,0.04 -0.03,-0.28 -0.03,0.02 -0.24,-0.2 -0.12,-0.13 -0.54,-1.23 -0.63,-1.46 -0.11,-0.28 -0.23,-0.78 -0.39,-0.41l-0.41 1.03c-0.08,0.19 -0.15,0.38 -0.23,0.57 -0.23,0.58 -0.32,0.17 -0.36,0.47 0.13,0 0.53,0.02 0.65,-0.02l0.04 -0.02c-0.05,-0.15 0,0 -0.2,-0.12z"/>
   <path fill="#FEFEFE" d="M39.56 10.18c-0.16,0.03 0,0.38 -0.53,0.43 -0.86,0.07 -0.69,-0.22 -0.69,-1.31 0,-0.11 -0.01,-0.39 0.01,-0.49 0.03,-0.08 0.05,-0.1 0.12,-0.13 0.18,-0.08 0.14,0.06 0.15,-0.14l-0.88 0.01 0.02 0.1c0.3,0.04 0.28,0.09 0.28,0.4l0 1.31c-0.02,0.4 -0.25,0.15 -0.31,0.34 0.1,0.09 1.75,0.05 1.84,0.02 0.01,-0.1 0.02,-0.2 0.03,-0.29 0.03,-0.3 0.02,-0.23 -0.04,-0.25z"/>
   <path fill="#FEFEFE" d="M55.69 8.54l-0.86 0c0.03,0.18 -0.06,0.06 0.09,0.13 0,0 0.13,0.03 0.16,0.03 0.06,0.53 0.03,0.99 0.03,1.54 0,0.63 -0.27,0.2 -0.31,0.5l1.84 0 0.01 -0.54c0,-0.01 0,-0.02 -0.01,-0.02 -0.11,0.03 -0.06,0.02 -0.11,0.15 -0.1,0.23 -0.26,0.27 -0.51,0.28 -0.44,0.02 -0.61,0 -0.61,-0.44 0,-0.22 -0.04,-1.34 0.06,-1.45 0.07,-0.07 0.07,-0.03 0.13,-0.06 0.14,-0.06 0.07,0.08 0.09,-0.12z"/>
   <path fill="#FEFEFE" d="M45.18 8.22c0.3,-0.01 0.71,0.39 0.81,-0.21 -0.22,0.05 -0.05,0.15 -0.29,0.11 -0.09,-0.01 -0.19,-0.08 -0.28,-0.1 -0.24,-0.06 -0.38,0.1 -0.38,0.31 0.14,-0.02 0.04,-0.01 0.14,-0.11z"/>
  </g>
 </g>
</svg>
